# xmcd
#
# Track frame offsets: 
#        150
#        19428
#        39360
#        58563
#        78435
#        98067
#        114116
#        133106
#        150983
#        172608
#        189866
#        204606
#        223015
#        241769
#        252069
#        274313
#        292082
#        309108
#        325509
#
# Disc length: 4592 seconds
#
# Revision: 0
# Processed by: cddbd v1.5.1PL2 Copyright (c) Steve Scherf et al.
# Submitted via: ExactAudioCopy v0.95b3
#
DISCID=f211ee13
DTITLE=Various Artist - Windswept-Trio-Quartet Sampler [CD8]
DYEAR=2004
DGENRE=Pop/Rock
TTITLE0=Destiny's Child - Survivor
TTITLE1=Montgomery Gentry - My Town
TTITLE2=Paul Oakenfold - Ready Steady Go
TTITLE3=Beanie Sigel and Freeway - Roc The Mic
TTITLE4=Eve - Satisfaction
TTITLE5=Rascal Flats - These Days
TTITLE6=Brandy - What About Us
TTITLE7=Beyonce - Crazy In Love
TTITLE8=Fischerspooner - Emerge
TTITLE9=Talib Kweli - Get By
TTITLE10=50 Cent - In Da Club
TTITLE11=Ginuwine - In Those Jeans
TTITLE12=Delta Goodrem - Lost Without You
TTITLE13=Kings Of Leon - Molly's Chamber
TTITLE14=Nelly, P. Diddy and Murphy Lee - Shake Ya Tailfeather
TTITLE15=OutKast - The Way You Move
TTITLE16=Britney Spears Featuring Madonna - Me Against The Music
TTITLE17=Tears For Fears - Closest Thing To Heaven
TTITLE18=Usher Featuring Ludacris And Lil' Jon - Yeah
EXTD=
EXTT0=
EXTT1=
EXTT2=
EXTT3=
EXTT4=
EXTT5=
EXTT6=
EXTT7=
EXTT8=
EXTT9=
EXTT10=
EXTT11=
EXTT12=
EXTT13=
EXTT14=
EXTT15=
EXTT16=
EXTT17=
EXTT18=
PLAYORDER=
